<svg data-name="Ğ¡Ğ»Ğ¾Ğ¹ 6" xmlns="http://www.w3.org/2000/svg" viewBox="0 0 67.39 67.39"><title>link</title><path d="M66.19 30.87l-29.7-29.7a4 4 0 0 0-5.66 0L1.19 30.87a4 4 0 0 0 0 5.66l29.7 29.7a4 4 0 0 0 5.66 0l29.64-29.7a4 4 0 0 0 0-5.66zm-42.68-9.65l1.59-1.59a6 6 0 0 1 8.49 0l7.07 7.07a6 6 0 0 1 1.53 5.78l-10.7-10.73a3 3 0 0 0-4.24 0l-1.59 1.59a3 3 0 0 0 0 4.24l10.73 10.73a6 6 0 0 1-5.78-1.53l-7.07-7.07a6 6 0 0 1 0-8.49zm20.31 24.95l-1.59 1.59a6 6 0 0 1-8.49 0l-7.07-7.07a6 6 0 0 1-1.53-5.78l10.72 10.73a3 3 0 0 0 4.24 0l1.59-1.59a3 3 0 0 0 0-4.24L30.96 29.08a6 6 0 0 1 5.78 1.53l7.07 7.07a6 6 0 0 1 .03 8.49z" fill="#e4e3e3"/></svg>