<svg id="Слой_1" data-name="Слой 1" xmlns="http://www.w3.org/2000/svg" viewBox="0 0 150 150"><defs><style>.cls-1{fill:#e4e4e4}</style></defs><title>desktop</title><path d="M272 380.5a74.5 74.5 0 1 1 74.5-74.5 74.58 74.58 0 0 1-74.5 74.5z" transform="translate(-197 -231)"/><path d="M272 232a74 74 0 1 1-74 74 74.08 74.08 0 0 1 74-74m0-1a75 75 0 1 0 75 75 75 75 0 0 0-75-75z" transform="translate(-197 -231)"/><path class="cls-1" d="M298.31 280h-51.62a3.69 3.69 0 0 0-3.69 3.69v33.19a3.69 3.69 0 0 0 3.69 3.69h18.43c0 2.67-.11 6.13-1.12 7.38h-.74a1.84 1.84 0 0 0 0 3.69h18.49a1.84 1.84 0 0 0 0-3.69H281c-1-1.25-1.12-4.71-1.12-7.37h18.43a3.69 3.69 0 0 0 3.69-3.69v-33.2a3.69 3.69 0 0 0-3.69-3.69zm-29.5 40.56zm7.38 0zm22.12-7.38h-51.62v-29.5h51.63z" transform="translate(-197 -231)"/></svg>