<svg data-name="Слой 1" xmlns="http://www.w3.org/2000/svg" viewBox="0 0 150 150"><title>lifesaver</title><path d="M75 149.5A74.5 74.5 0 1 1 149.5 75 74.58 74.58 0 0 1 75 149.5z"/><path d="M75 1A74 74 0 1 1 1 75 74.08 74.08 0 0 1 75 1m0-1a75 75 0 1 0 75 75A75 75 0 0 0 75 0z"/><path d="M75.18 44a31 31 0 1 0 21.92 9.08A30.91 30.91 0 0 0 75.18 44zm-11 42a15.49 15.49 0 1 1 11 4.54A15.39 15.39 0 0 1 64.22 86zm22.94-35.27l-6 6a17.7 17.7 0 0 0-11.49-.16l-6-6a27 27 0 0 1 23.51.22zM50.6 63.53l6 6a19.35 19.35 0 0 0 .15 11.49l-6 6a27 27 0 0 1-.22-23.51zm5.36 30.7zm8.13 5.58l6.11-6.11a17.35 17.35 0 0 0 10.43-.16l6 6a27 27 0 0 1-22.58.22zm35.58-13.24l-6-6a19.33 19.33 0 0 0 .15-10.43l6.1-6.1a27.23 27.23 0 0 1-.21 22.47z" fill="#e4e4e4"/></svg>