<svg data-name="Слой 1" xmlns="http://www.w3.org/2000/svg" viewBox="0 0 150 150"><title>puzzle</title><path d="M75 149.5A74.5 74.5 0 1 1 149.5 75 74.58 74.58 0 0 1 75 149.5z"/><path d="M75 1A74 74 0 1 1 1 75 74.08 74.08 0 0 1 75 1m0-1a75 75 0 1 0 75 75A75 75 0 0 0 75 0z"/><path d="M63.38 87.4a5.61 5.61 0 0 1-4.05-1.7c-2.94-3-6.58-1.71-7.45 2.3-1.39 6.49-1.26 10.65.41 12.72a3.15 3.15 0 0 0 2.4 1.28l35.84.09a8.32 8.32 0 0 0 8.46-8.15V70.38c0-2.76.07-5.62-1.4-7.11a3.39 3.39 0 0 0-4-.52c-2.93 1.25-6.11 1.42-10.24.61a5.11 5.11 0 0 1-1.43-.5s.07-.31.69-.86a8.49 8.49 0 0 0 2.91-6.33 8.88 8.88 0 0 0-17.75 0 9 9 0 0 0 3.18 6.54c.1.1.3.29.46.47a8.81 8.81 0 0 1-2.33.64c-3.41.57-6.78-.24-9.35-.84-2.87-.68-4.7-.9-5.76.18s-3.77 4.88-2.13 13.14c.25 1.26 1 5.11 3.93 5.11a4.83 4.83 0 0 0 3.2-1.69c4.25-4.09 9.8-1.16 9.8 3.07a5.29 5.29 0 0 1-5.39 5.11z" fill="#e4e4e4"/></svg>