<svg data-name="Слой 1" xmlns="http://www.w3.org/2000/svg" viewBox="0 0 40.79 76.8"><title>cart</title><path d="M40.79 23.4v33.27l-10 10.06-10 10.06-10-10.06L.12 56.66V23.4c0-1.73 1.84-3.14 4.08-3.14h32.63c2.12 0 3.96 1.42 3.96 3.14z" fill="#00aa9e"/><path d="M40.79 3.14v33.27l-10 10.06-10 10.06-10-10.06L.12 36.4V3.14C.12 1.41 1.96 0 4.2 0h32.63c2.12 0 3.96 1.41 3.96 3.14z" fill="#404040"/><path d="M30.27 21.24H13.42a1.33 1.33 0 0 0-.31.06l-.54-2.33a.7.7 0 0 0-.68-.54h-2a.7.7 0 1 0 0 1.4h1.46l.87 3.73 1.22 6.1a1.23 1.23 0 0 0 0 .14l-.71 3.21a.7.7 0 0 0 .69.85h15.93a.7.7 0 1 0 0-1.4h-15l.32-1.45a1.28 1.28 0 0 0 .21 0h12.8a1.45 1.45 0 0 0 1.62-1.05l2.28-7a1.25 1.25 0 0 0-1.31-1.72zM13.42 36.68a1.4 1.4 0 1 0 1.4-1.4 1.4 1.4 0 0 0-1.4 1.41zm12.64 0a1.4 1.4 0 1 0 1.4-1.4 1.4 1.4 0 0 0-1.4 1.41z" fill="#e3e3e2"/></svg>