<svg data-name="Слой 1" xmlns="http://www.w3.org/2000/svg" viewBox="0 0 40.79 76.8"><title>desktop</title><path d="M40.79 23.4v33.27l-10 10.06-10 10.06-10-10.06L.12 56.66V23.4c0-1.73 1.84-3.14 4.08-3.14h32.63c2.12 0 3.96 1.42 3.96 3.14z" fill="#00aa9e"/><path d="M40.79 3.14v33.27l-10 10.06-10 10.06-10-10.06L.12 36.4V3.14C.12 1.41 1.96 0 4.2 0h32.63c2.12 0 3.96 1.41 3.96 3.14z" fill="#404040"/><path d="M30.31 18.33H10.48a1.42 1.42 0 0 0-1.42 1.42V32.5a1.42 1.42 0 0 0 1.42 1.42h7.08a5.91 5.91 0 0 1-.43 2.83h-.29a.71.71 0 0 0 0 1.42h7.1a.71.71 0 0 0 0-1.42h-.29a5.89 5.89 0 0 1-.43-2.83h7.08a1.42 1.42 0 0 0 1.42-1.42V19.76a1.42 1.42 0 0 0-1.41-1.43zm-11.33 15.6zm2.83 0zm8.5-2.84H10.48V19.76h19.83z" fill="#e3e3e2"/></svg>