<svg data-name="Слой 1" xmlns="http://www.w3.org/2000/svg" viewBox="0 0 40.79 76.8"><title>lifesaver</title><path d="M40.79 23.4v33.27l-10 10.06-10 10.06-10-10.06L.12 56.66V23.4c0-1.73 1.84-3.14 4.08-3.14h32.63c2.12 0 3.96 1.42 3.96 3.14z" fill="#00aa9e"/><path d="M40.79 3.14v33.27l-10 10.06-10 10.06-10-10.06L.12 36.4V3.14C.12 1.41 1.96 0 4.2 0h32.63c2.12 0 3.96 1.41 3.96 3.14z" fill="#404040"/><path d="M20.39 18.52a9.74 9.74 0 1 0 6.89 2.85 9.71 9.71 0 0 0-6.89-2.85zM16.95 31.7a4.87 4.87 0 1 1 3.44 1.43 4.83 4.83 0 0 1-3.44-1.42zm7.21-11.08l-1.88 1.88a5.56 5.56 0 0 0-3.61 0l-1.9-1.9a8.47 8.47 0 0 1 7.38.07zm-11.47 4l1.9 1.9a6.08 6.08 0 0 0 0 3.61l-1.88 1.88a8.47 8.47 0 0 1-.07-7.38zm1.68 9.64zm2.55 1.75l1.92-1.92a5.45 5.45 0 0 0 3.28 0l1.9 1.9a8.47 8.47 0 0 1-7.09.07zm11.14-4.13l-1.9-1.9a6.07 6.07 0 0 0 0-3.28l1.91-1.91a8.55 8.55 0 0 1-.01 7.09z" fill="#e3e3e2"/></svg>