<svg data-name="Слой 1" xmlns="http://www.w3.org/2000/svg" viewBox="0 0 40.79 76.8"><title>menu</title><path d="M40.79 23.4v33.27l-10 10.06-10 10.06-10-10.06L.12 56.66V23.4c0-1.73 1.84-3.14 4.08-3.14h32.63c2.12 0 3.96 1.42 3.96 3.14z" fill="#00aa9e"/><path d="M40.79 3.14v33.27l-10 10.06-10 10.06-10-10.06L.12 36.4V3.14C.12 1.41 1.96 0 4.2 0h32.63c2.12 0 3.96 1.41 3.96 3.14z" fill="#404040"/><path d="M28.83 18.52H11.95a1.3 1.3 0 0 0-1.3 1.3V36.7a1.3 1.3 0 0 0 1.3 1.3h16.88a1.3 1.3 0 0 0 1.3-1.3V19.82a1.3 1.3 0 0 0-1.3-1.3zM25.58 32.8H15.2a.65.65 0 1 1 0-1.3h10.39a.65.65 0 1 1 0 1.3zm0-3.9H15.2a.65.65 0 1 1 0-1.3h10.39a.65.65 0 1 1 0 1.3zm0-3.9H15.2a.65.65 0 1 1 0-1.3h10.39a.65.65 0 1 1 0 1.3z" fill="#e3e3e2"/></svg>