<svg data-name="Слой 1" xmlns="http://www.w3.org/2000/svg" viewBox="0 0 40.79 76.8"><title>puzzle</title><path d="M40.79 23.4v33.27l-10 10.06-10 10.06-10-10.06L.12 56.66V23.4c0-1.73 1.84-3.14 4.08-3.14h32.63c2.12 0 3.96 1.42 3.96 3.14z" fill="#383838"/><path d="M40.79 3.14v33.27l-10 10.06-10 10.06-10-10.06L.12 36.4V3.14C.12 1.41 1.96 0 4.2 0h32.63c2.12 0 3.96 1.41 3.96 3.14z" fill="#00aa9e"/><path d="M16.28 32.79a2 2 0 0 1-1.44-.6 1.47 1.47 0 0 0-2.64.82c-.49 2.3-.45 3.77.15 4.51a1.12 1.12 0 0 0 .85.45h12.7a3 3 0 0 0 3-2.89v-8.35a3.68 3.68 0 0 0-.5-2.52 1.2 1.2 0 0 0-1.4-.18 5.94 5.94 0 0 1-3.63.22 1.81 1.81 0 0 1-.51-.18s0-.11.24-.3a3 3 0 0 0 1-2.24 3.15 3.15 0 0 0-6.29 0 3.18 3.18 0 0 0 1.13 2.32l.16.17a3.12 3.12 0 0 1-.83.23 8.37 8.37 0 0 1-3.31-.3c-1-.24-1.67-.32-2 .06s-1.34 1.73-.76 4.66c.09.45.36 1.81 1.39 1.81a1.71 1.71 0 0 0 1.13-.6 2 2 0 0 1 3.47 1.09 1.87 1.87 0 0 1-1.91 1.82z" fill="#e3e3e2"/></svg>