<svg data-name="Ğ¡Ğ»Ğ¾Ğ¹ 1" xmlns="http://www.w3.org/2000/svg" viewBox="0 0 40.79 76.8"><title>star</title><path d="M40.79 23.4v33.27l-10 10.06-10 10.06-10-10.06L.12 56.66V23.4c0-1.73 1.84-3.14 4.08-3.14h32.63c2.12 0 3.96 1.42 3.96 3.14z" fill="#00aa9e"/><path d="M40.79 3.14v33.27l-10 10.06-10 10.06-10-10.06L.12 36.4V3.14C.12 1.41 1.96 0 4.2 0h32.63c2.12 0 3.96 1.41 3.96 3.14z" fill="#404040"/><path d="M23.62 24.87l-3.23-6.54-3.22 6.53-7.2 1 5.21 5.08-1.23 7.18 6.44-3.39 6.44 3.39-1.23-7.18 5.21-5.08z" fill="#e3e3e2"/></svg>