<svg width="36" height="42" data-name="Слой 1" xmlns="http://www.w3.org/2000/svg" viewBox="0 0 28 32"><path d="M7.25 23.44a3.27 3.27 0 0 1-2.36-1c-1.71-1.76-3.83-1-4.34 1.34-.81 3.78-.73 6.2.24 7.41a1.83 1.83 0 0 0 1.4.74l20.87.05a4.84 4.84 0 0 0 4.93-4.74V13.53c0-1.61 0-3.27-.82-4.14a2 2 0 0 0-2.31-.3 9.77 9.77 0 0 1-6 .36 3 3 0 0 1-.83-.29s0-.18.4-.5a4.94 4.94 0 0 0 1.69-3.68 5.17 5.17 0 0 0-10.34 0 5.22 5.22 0 0 0 1.85 3.81l.27.27a5.13 5.13 0 0 1-1.36.37 13.75 13.75 0 0 1-5.44-.49c-1.67-.39-2.74-.52-3.35.1S-.44 11.88.51 16.69c.14.74.59 3 2.29 3a2.81 2.81 0 0 0 1.86-1c2.48-2.38 5.71-.68 5.71 1.79a3.08 3.08 0 0 1-3.12 2.96z" fill="#269086"/></svg>