<svg data-name="Слой 7" xmlns="http://www.w3.org/2000/svg" viewBox="0 0 78.82 78.82"><title>dribble</title><rect x="753.67" y="911.34" width="58.08" height="58.08" rx="4" ry="4" transform="rotate(-45 -676.513 1387.151)" fill="#e4e3e3"/><path d="M39.27 27.31a12 12 0 1 0 12 12 12 12 0 0 0-12-12zm7.92 5.52a10.17 10.17 0 0 1 2.31 6.37 23.86 23.86 0 0 0-7.12-.33l-.22-.53c-.21-.5-.44-1-.68-1.48a13.62 13.62 0 0 0 5.71-4.03zm-7.92-3.8a10.19 10.19 0 0 1 6.78 2.58 11.53 11.53 0 0 1-5.36 3.69 55.06 55.06 0 0 0-3.82-6 10.18 10.18 0 0 1 2.4-.27zm-4.35 1a65.36 65.36 0 0 1 3.79 5.92 38.17 38.17 0 0 1-9.46 1.25 10.26 10.26 0 0 1 5.67-7.17zm-5.88 9.26v-.31a37.7 37.7 0 0 0 10.51-1.45c.29.57.57 1.15.83 1.74l-.4.12a16.23 16.23 0 0 0-8.29 6.74 10.2 10.2 0 0 1-2.65-6.84zm10.23 10.23a10.18 10.18 0 0 1-6.28-2.16c.18-.38 2.26-4.38 8-6.39h.07a42.45 42.45 0 0 1 2.18 7.76 10.11 10.11 0 0 1-3.97.79zm5.71-1.75a44 44 0 0 0-2-7.29 15 15 0 0 1 6.37.44 10.25 10.25 0 0 1-4.37 6.85z" fill="none"/><path d="M38.69 35.95a65.36 65.36 0 0 0-3.79-5.92 10.26 10.26 0 0 0-5.66 7.16 38.17 38.17 0 0 0 9.45-1.24zm7.36-4.31a10.22 10.22 0 0 0-9.18-2.29 55.06 55.06 0 0 1 3.82 6 11.53 11.53 0 0 0 5.36-3.71zm-3.9 6.7l.22.53a23.86 23.86 0 0 1 7.12.33 10.17 10.17 0 0 0-2.31-6.37 13.62 13.62 0 0 1-5.71 4c.22.52.47 1.01.68 1.51zm-1.13 2.64c-5.77 2-7.84 6-8 6.39a10.22 10.22 0 0 0 10.27 1.35 42.45 42.45 0 0 0-2.18-7.76z" fill="#00aa9e"/><path d="M39.27 23.28a16 16 0 1 0 16 16 16 16 0 0 0-16-16zm0 28a12 12 0 1 1 12-12 12 12 0 0 1-12 11.97z" fill="#00aa9e"/><path d="M43 40.48a44 44 0 0 1 2 7.29 10.25 10.25 0 0 0 4.38-6.86 15 15 0 0 0-6.38-.43zm-3.02-1.1l.4-.12c-.26-.58-.54-1.16-.83-1.74a37.7 37.7 0 0 1-10.51 1.51v.31a10.2 10.2 0 0 0 2.65 6.79 16.23 16.23 0 0 1 8.29-6.75z" fill="#00aa9e"/></svg>