<svg data-name="Слой 7" xmlns="http://www.w3.org/2000/svg" viewBox="0 0 78.82 78.82"><title>google-plus</title><rect x="753.67" y="911.34" width="58.08" height="58.08" rx="4" ry="4" transform="rotate(-45 -676.513 1387.151)" fill="#e4e3e3"/><path d="M31.98 52.93c5.3 0 8.23-3 8.23-6a5.84 5.84 0 0 0-2.93-5.44c-.76-.54-2.2-1.84-2.2-2.6s.26-1.34 1.61-2.4a5.62 5.62 0 0 0 2.36-4.37c0-2.11-.94-4.16-2.7-4.84H39l1.88-1.35h-8.37c-3.75 0-7.28 2.84-7.28 6.14a6.05 6.05 0 0 0 6.38 6.08h.78a3.41 3.41 0 0 0-.43 1.56 3.26 3.26 0 0 0 1.14 2.31h-1.45c-4.65 0-8.23 3-8.23 6s3.91 4.91 8.56 4.91zm.83-15.67c-2.16-.06-4.21-2.41-4.58-5.25s1.07-5 3.23-4.94 4.21 2.34 4.58 5.17-1.08 5.09-3.24 5.02zm-.29 5.5a7 7 0 0 1 2.08.33c1.74 1.21 3 1.9 3.35 3.28a3.75 3.75 0 0 1 .1.86c0 2.44-1.57 4.35-6.09 4.35-3.21 0-5.53-2-5.53-4.48s2.87-4.37 6.09-4.33zm16.89-10.94v-5.93h-2v5.93h-6v2h6v6.07h2v-6.06h6v-2z" fill="#00aa9e"/></svg>