<svg data-name="Слой 7" xmlns="http://www.w3.org/2000/svg" viewBox="0 0 26.7 23.23"><title>section-icon</title><path d="M26.7 18.15a5 5 0 0 0-4.9-5.09 4.7 4.7 0 0 0-2.38.66c.24-2.72 1.61-6.69 6.63-10.73a1.72 1.72 0 0 0 .29-2.35 1.59 1.59 0 0 0-1.27-.65 1.56 1.56 0 0 0-1 .35c-6.16 5-7.7 10.08-7.91 13.49-.35 4.36 1 6.66 2.18 7.85a4.12 4.12 0 0 0 .34.35 5.1 5.1 0 0 0 .77.55 4.44 4.44 0 0 0 .57.27 4.47 4.47 0 0 0 1.71.38 5 5 0 0 0 4.97-5.08zm-16.12 0a5 5 0 0 0-4.9-5.09 4.7 4.7 0 0 0-2.38.66C3.54 11 4.91 7.03 9.93 2.99a1.72 1.72 0 0 0 .29-2.35 1.59 1.59 0 0 0-1.27-.65 1.56 1.56 0 0 0-1 .35C1.79 5.34.25 10.42.04 13.83c-.35 4.36 1 6.66 2.18 7.85a4.76 4.76 0 0 0 .34.35 5.1 5.1 0 0 0 .77.55 5.1 5.1 0 0 0 .57.27 4.48 4.48 0 0 0 1.71.38 5 5 0 0 0 4.97-5.08z" fill="#e3e3e2"/></svg>