<svg data-name="Слой 7" xmlns="http://www.w3.org/2000/svg" viewBox="0 0 78.82 78.82"><title>twitter</title><rect x="753.67" y="911.34" width="58.08" height="58.08" rx="4" ry="4" transform="rotate(-45 -676.513 1387.151)" fill="#e4e3e3"/><path d="M54.52 26.89a13.19 13.19 0 0 1-4.17 1.59 6.57 6.57 0 0 0-11.19 6 18.64 18.64 0 0 1-13.53-6.86 6.57 6.57 0 0 0 2 8.76 6.57 6.57 0 0 1-3-.82v.08a6.57 6.57 0 0 0 5.27 6.44 6.58 6.58 0 0 1-3 .11 6.57 6.57 0 0 0 6.13 4.56 13.18 13.18 0 0 1-8.15 2.81 13.49 13.49 0 0 1-1.57-.09 18.59 18.59 0 0 0 10.06 3c12.08 0 18.68-10 18.68-18.68v-.85a13.23 13.23 0 0 0 3.28-3.39 13.11 13.11 0 0 1-3.77 1 6.58 6.58 0 0 0 2.96-3.66z" fill="#00aa9e"/></svg>