<svg data-name="Слой 7" xmlns="http://www.w3.org/2000/svg" viewBox="0 0 32 32"><title>deviantart</title><path fill="#e4e3e3" d="M1.74 2.97h28.38V28.6H1.74z"/><path d="M26 0H6a6 6 0 0 0-6 6v20a6 6 0 0 0 6 6h20a6 6 0 0 0 6-6V6a6 6 0 0 0-6-6zm-8.9 18.54L14.57 14a12.61 12.61 0 0 1 2.87-.19l1.44 2.29 3.44-.83c-1.35-1.32-3.82-2.57-8.34-1.76l-.29.06 2.79 5.17L6.43 21.5a5 5 0 0 1-.52-1.08 5.33 5.33 0 0 1 1.24-5.35 8.56 8.56 0 0 1 3.34-2.22l-.85-1.77a14.23 14.23 0 0 1 2.43-.54l.89 1.65h.29a20.44 20.44 0 0 1 7.7.14 10.84 10.84 0 0 1 5.75 2.76 2.8 2.8 0 0 1 .48.75zm-7.81-.14l3.44-.83-1.54-3.22A3.4 3.4 0 0 0 9.3 18.4z" fill="#010101"/></svg>