<svg data-name="Слой 7" xmlns="http://www.w3.org/2000/svg" viewBox="0 0 32 32"><title>dribble</title><path fill="#e4e3e3" d="M1.81 3.19h28.38v25.63H1.81z"/><path d="M15.44 12.67a65.37 65.37 0 0 0-3.79-5.92 10.26 10.26 0 0 0-5.66 7.16 38.17 38.17 0 0 0 9.45-1.24zM26 0H6a6 6 0 0 0-6 6v20a6 6 0 0 0 6 6h20a6 6 0 0 0 6-6V6a6 6 0 0 0-6-6zM16 28a12 12 0 1 1 12-12 12 12 0 0 1-12 11.97zm.71-11.87l.4-.12c-.26-.58-.54-1.16-.83-1.74a37.7 37.7 0 0 1-10.51 1.45v.31a10.2 10.2 0 0 0 2.63 6.84 16.23 16.23 0 0 1 8.31-6.77zm1.49-2.52c.24.49.47 1 .68 1.48l.22.53a23.86 23.86 0 0 1 7.12.33 10.17 10.17 0 0 0-2.31-6.37 13.62 13.62 0 0 1-5.71 4zm-.46 4.12c-5.77 2-7.84 6-8 6.39a10.22 10.22 0 0 0 10.27 1.35 42.46 42.46 0 0 0-2.18-7.76zm5-9.33a10.22 10.22 0 0 0-9.18-2.29 55.06 55.06 0 0 1 3.82 6 11.53 11.53 0 0 0 5.4-3.75zm-3.05 8.84a44 44 0 0 1 2 7.29 10.25 10.25 0 0 0 4.38-6.86 15 15 0 0 0-6.34-.47z" fill="#010101"/></svg>