<svg data-name="Слой 7" xmlns="http://www.w3.org/2000/svg" viewBox="0 0 32 32"><title>facebook</title><g fill="#383838"><path d="M17.52 11.04c0-.86.06-1.32 1.3-1.32h1.66v-3.3h-2.65c-3.18 0-3.91 1.64-3.91 4.34v1.95h-2.4v3.31h2.4v9.6h3.6v-9.6h2.65l.35-3.31h-3z"/><path d="M26 0H6a6 6 0 0 0-6 6v20a6 6 0 0 0 6 6h20a6 6 0 0 0 6-6V6a6 6 0 0 0-6-6zm-5.86 16h-2.62v9.6h-3.6V16h-2.4v-3.31h2.4v-1.95c0-2.7.73-4.34 3.91-4.34h2.65v3.31h-1.66c-1.24 0-1.3.46-1.3 1.32v1.66h3z"/></g><path d="M17.52 11.04c0-.86.06-1.32 1.3-1.32h1.66v-3.3h-2.65c-3.18 0-3.91 1.64-3.91 4.34v1.95h-2.4v3.31h2.4v9.6h3.6v-9.6h2.65l.35-3.31h-3z" fill="#e4e3e3"/></svg>