<svg data-name="Слой 7" xmlns="http://www.w3.org/2000/svg" viewBox="0 0 32 32"><title>picassa</title><path fill="#e4e3e3" d="M1.81 3.19h28.38v25.63H1.81z"/><path d="M26 0H6a6 6 0 0 0-6 6v20a6 6 0 0 0 6 6h20a6 6 0 0 0 6-6V6a6 6 0 0 0-6-6zM16 4a12 12 0 0 1 4.5.87v8.37L11.96 4.7A12 12 0 0 1 16 4zM4 16a12 12 0 0 1 6.22-10.52l3.77 3.77-9.64 9.64A12 12 0 0 1 4 16zm6 10.39a12 12 0 0 1-5-5.62l5-5zM16 28a11.94 11.94 0 0 1-4.5-.87V22h14.89A12 12 0 0 1 16 28zm11.13-7.5H22V5.6a12 12 0 0 1 5.13 14.89z" fill="#010101"/></svg>