<svg data-name="Слой 7" xmlns="http://www.w3.org/2000/svg" viewBox="0 0 32 32"><title>printerest</title><path d="M15.03 6.46a7.21 7.21 0 0 0-6.5 6.62c-.08 2.25.56 3.94 2.7 4.42.93-1.64-.3-2-.49-3.19-.79-4.86 5.61-8.18 9-4.78 2.32 2.35.79 9.58-2.94 8.83-3.58-.72 1.75-6.47-1.1-7.6-2.32-.92-3.55 2.81-2.45 4.66-.65 3.19-2 6.19-1.47 10.18 1.82-1.32 2.44-3.86 2.94-6.5.92.56 1.41 1.14 2.58 1.23 4.31.33 6.72-4.31 6.13-8.59-.58-3.8-4.36-5.73-8.4-5.28z" fill="#e4e3e3"/><path d="M26 0H6a6 6 0 0 0-6 6v20a6 6 0 0 0 6 6h20a6 6 0 0 0 6-6V6a6 6 0 0 0-6-6zm-8.75 20.33c-1.17-.09-1.66-.67-2.58-1.23-.5 2.64-1.12 5.18-2.94 6.5-.56-4 .83-7 1.47-10.18-1.1-1.85.13-5.58 2.45-4.66 2.85 1.13-2.47 6.89 1.1 7.6 3.73.75 5.26-6.48 2.94-8.83-3.35-3.4-9.74-.08-9 4.78.19 1.19 1.42 1.55.49 3.19-2.14-.47-2.78-2.16-2.7-4.42a7.21 7.21 0 0 1 6.5-6.62c4-.45 7.82 1.48 8.34 5.27.64 4.29-1.77 8.93-6.08 8.6z" fill="#383838"/></svg>