<svg data-name="Слой 7" xmlns="http://www.w3.org/2000/svg" viewBox="0 0 32 32"><title>stumbleupon</title><path fill="#e4e3e3" d="M1.81 3.19h28.38v25.63H1.81z"/><path d="M26 0H6a6 6 0 0 0-6 6v20a6 6 0 0 0 6 6h20a6 6 0 0 0 6-6V6a6 6 0 0 0-6-6zM16 11.71a1.43 1.43 0 0 0-1.43 1.43v5.72a4.29 4.29 0 1 1-8.58 0V16h2.86v2.86a1.43 1.43 0 1 0 2.86 0v-5.72A4.29 4.29 0 0 1 16 8.85a4.24 4.24 0 0 1 4.29 4v1.39l-1.83.53-1-.54v-1.39A1.42 1.42 0 0 0 16 11.71zm10 7.15a4.29 4.29 0 0 1-4.29 4.29 4.37 4.37 0 0 1-4.29-4.6v-2.77l1 .54 1.83-.54v2.77c0 1.1.64 1.74 1.43 1.74a1.43 1.43 0 0 0 1.43-1.43V16H26v2.86z" fill="#010101"/></svg>