<svg data-name="Слой 7" xmlns="http://www.w3.org/2000/svg" viewBox="0 0 32 32"><title>twitter</title><path d="M31.87 4.79A6 6 0 0 0 25.99 0h-20a6 6 0 0 0-3.82 1.37q-.22.18-.43.39A6 6 0 0 0-.02 6v20a6 6 0 0 0 6 6h20a6 6 0 0 0 4.24-1.76q.2-.2.39-.43a6 6 0 0 0 .53-.77l.2-.36a5.81 5.81 0 0 0 .64-2.69v-20a6 6 0 0 0-.11-1.2zm-6 5.58a8 8 0 0 1-2 2v.51a11.54 11.54 0 0 1-1.4 5.4c-.13.25-.28.5-.43.74a11.36 11.36 0 0 1-.92 1.25l-.15.19a10.8 10.8 0 0 1-8.3 3.63 11.15 11.15 0 0 1-6-1.77 8.1 8.1 0 0 0 .94.06 7.9 7.9 0 0 0 4.89-1.69 3.94 3.94 0 0 1-3.68-2.74 3.88 3.88 0 0 0 1.69-.05h.09a3.94 3.94 0 0 1-3.16-3.86 3.93 3.93 0 0 0 1.78.49 3.91 3.91 0 0 1-1.63-4.22c0-.09 0-.18.08-.27a3.94 3.94 0 0 1 .34-.77 11.18 11.18 0 0 0 8.12 4.12 3.8 3.8 0 0 1 0-1.61c0-.11.05-.21.08-.31A3.93 3.93 0 0 1 20 8.55a3.94 3.94 0 0 1 2.88 1.24 7.94 7.94 0 0 0 2.5-1 3.93 3.93 0 0 1-1.14 1.74 4 4 0 0 1-.57.42 7.88 7.88 0 0 0 2.26-.62z" fill="#383838"/><path d="M23.66 10.99a4 4 0 0 0 .57-.42 3.93 3.93 0 0 0 1.14-1.74 7.94 7.94 0 0 1-2.5 1 3.94 3.94 0 0 0-2.88-1.24 3.93 3.93 0 0 0-3.79 2.92c0 .1-.06.2-.08.31a3.8 3.8 0 0 0 0 1.61A11.18 11.18 0 0 1 8 9.31a3.94 3.94 0 0 0-.34.77c0 .09-.06.18-.08.27a3.91 3.91 0 0 0 1.63 4.22 3.93 3.93 0 0 1-1.78-.49 3.94 3.94 0 0 0 3.16 3.86h-.09a3.88 3.88 0 0 1-1.69.05 3.94 3.94 0 0 0 3.68 2.74 7.9 7.9 0 0 1-4.89 1.69 8.1 8.1 0 0 1-.94-.06 11.15 11.15 0 0 0 6 1.77 10.8 10.8 0 0 0 8.3-3.63l.15-.19a11.36 11.36 0 0 0 .92-1.25c.15-.24.3-.49.43-.74a11.54 11.54 0 0 0 1.4-5.4v-.51a8 8 0 0 0 2-2 7.88 7.88 0 0 1-2.2.58z" fill="#e3e3e2"/></svg>