<svg data-name="Слой 7" xmlns="http://www.w3.org/2000/svg" viewBox="0 0 32 32"><title>vimeo</title><path d="M17.41 12.13c2.19-1.32 3.37.54 2.24 2.63s-2.14 3.46-2.68 3.46-.95-1.4-1.56-3.85-.63-7.1-3.26-6.58-5.75 4.39-5.75 4.39l.78 1s1.61-1.27 2.14-.63 2.58 8.29 3.26 9.7c.6 1.24 2.24 2.87 4 1.71s7.8-6.29 8.87-12.33-7.2-4.76-8.04.5z" fill="#e4e3e3"/><path d="M26 0H6a6 6 0 0 0-6 6v20a6 6 0 0 0 6 6h20a6 6 0 0 0 6-6V6a6 6 0 0 0-6-6zm-.5 11.65c-1.07 6-7.07 11.16-8.87 12.33s-3.45-.47-4-1.71c-.68-1.41-2.73-9.07-3.26-9.7s-2.14.63-2.14.63l-.78-1s3.27-3.9 5.75-4.39c2.63-.52 2.63 4 3.26 6.58s1 3.85 1.56 3.85 1.56-1.37 2.68-3.46 0-3.95-2.24-2.63c.79-5.28 9.12-6.55 8.04-.5z" fill="#383838"/></svg>