<svg data-name="Слой 7" xmlns="http://www.w3.org/2000/svg" viewBox="0 0 32 32"><title>youtube</title><path d="M23.3 9.15a102.09 102.09 0 0 0-14.59 0c-1.44.16-2.43 1.91-2.53 3.24a37.81 37.81 0 0 0 0 7.18c.11 1.33 1.07 3.09 2.53 3.28a108 108 0 0 0 14.59 0c1.42-.25 2.43-1.95 2.53-3.28a40 40 0 0 0 0-7.36c-.11-1.32-.9-2.96-2.53-3.06zM14 20v-8l6 4z" fill="#e4e3e3"/><path d="M14 20l6-4-6-4zM26 0H6a6 6 0 0 0-6 6v20a6 6 0 0 0 6 6h20a6 6 0 0 0 6-6V6a6 6 0 0 0-6-6zm-.17 19.58c-.11 1.33-1.12 3-2.53 3.28a108 108 0 0 1-14.59 0c-1.46-.18-2.43-1.95-2.53-3.28a37.81 37.81 0 0 1 0-7.18c.11-1.33 1.09-3.08 2.53-3.24a102.08 102.08 0 0 1 14.59 0c1.63.06 2.43 1.74 2.53 3.07a40 40 0 0 1 0 7.35z" fill="#383838"/></svg>