<svg xmlns="http://www.w3.org/2000/svg" width="197.6" height="288.3" viewBox="0 0 197.6 288.3"><path fill="none" stroke="#222221" stroke-width="7.592" stroke-linecap="round" stroke-linejoin="round" stroke-miterlimit="10" d="M164.5 114.6c0 85.2-132.5 85.5-132.5 0 0-85.6 132.5-85.2 132.5 0z"/><path fill="none" stroke="#222221" stroke-width="7.592" stroke-linecap="round" stroke-linejoin="round" stroke-miterlimit="10" d="M164.5 114.6c0 85.2-132.5 85.5-132.5 0 0-85.6 132.5-85.2 132.5 0z"/><path fill="#8CF1ED" stroke="#222221" stroke-miterlimit="10" d="M159.5 89.1c-5.1-12.2-13.7-22.6-24.6-29.8l-36.6 55.2 61.2-25.4z"/><path fill="none" stroke="#222221" stroke-width="7.592" stroke-linecap="round" stroke-linejoin="round" stroke-miterlimit="10" d="M164.5 114.6c0 85.2-132.5 85.5-132.5 0 0-85.6 132.5-85.2 132.5 0z"/><path fill="#8CF1ED" stroke="#222221" stroke-miterlimit="10" d="M159.5 89.1c-5.1-12.2-13.7-22.6-24.6-29.8l-36.6 55.2 61.2-25.4zm-117.1 61l10.7 12.1 45.2-47.6z"/><path fill="none" stroke="#222221" stroke-width="7.592" stroke-linecap="round" stroke-linejoin="round" stroke-miterlimit="10" d="M164.5 114.6c0 85.2-132.5 85.5-132.5 0 0-85.6 132.5-85.2 132.5 0z"/><path fill="#222221" stroke="#222221" stroke-miterlimit="10" d="M159.5 89.1c-5.1-12.2-13.7-22.6-24.6-29.8l-36.6 55.2 61.2-25.4zm-117.1 61l10.7 12.1 45.2-47.6z"/><g fill="#222221" stroke="#222221" stroke-miterlimit="10"><path d="M123 114.6c0 31.8-49.4 31.8-49.4 0 0-31.9 49.4-31.9 49.4 0z"/><path d="M107.9 114.6c0 12.5-19.3 12.5-19.3 0s19.3-12.5 19.3 0z"/></g><path fill="none" stroke="#222221" stroke-width="5.898" stroke-linecap="round" stroke-linejoin="round" stroke-miterlimit="10" d="M21 140.3H9.8c-3.8 0-6.8 3.1-6.8 6.8v131.3c0 3.8 3.1 6.8 6.8 6.8h178c3.8 0 6.8-3.1 6.8-6.8V147.2c0-3.8-3.1-6.8-6.8-6.8h-13.1"/><path fill="none" stroke="#2B1111" stroke-width="13.287" stroke-linecap="round" stroke-linejoin="round" stroke-miterlimit="10" d="M122.7 151.9l12.2 16.5c2.5 3.3 6.4 6.3 11.6 7.4"/><path fill="#222221" stroke="#222221" stroke-width="4.408" stroke-linecap="round" stroke-linejoin="round" stroke-miterlimit="10" d="M175.8 179.8c0 12.8-19.9 12.8-19.9 0s19.9-12.8 19.9 0z"/><path d="M39.2 186.3c0 10-8.8 0-8.7 0-.1 0 8.7-10 8.7 0zm0-15.8c0 10-8.8 0-8.7 0-.1 0 8.7-10 8.7 0z"/><path fill="#222221" stroke="#222221" stroke-width="4.408" stroke-linecap="round" stroke-linejoin="round" stroke-miterlimit="10" d="M122.7 151.9l12.2 16.5c6.8 8.8 20.6 9.2 30.7 11.2"/><path fill="#222221" d="M132.2 152.5c1.9 2.5 1.5 6-1 8l-2.2 1.7c-2.5 1.9-6 1.5-8-1l-7.3-9.4c-1.9-2.5-1.5-6 1-8l2.2-1.7c2.5-1.9 6-1.5 8 1l7.3 9.4z"/><path fill="none" stroke="#222221" stroke-width="5.694" stroke-linecap="round" stroke-linejoin="round" stroke-miterlimit="10" d="M113.8 18.8l-15-16-15 16L67 11.6l10.4 23.2c14-3.9 28.7-3.8 42.7 0l10.4-23.2-16.7 7.2z"/><path fill="#222221" d="M25.4 25.9l3.8 11.6h12.1l-9.8 7.2 3.7 11.6-9.8-7.2-9.9 7.2 3.8-11.6-9.9-7.2h12.2zm146.8 0l3.8 11.6h12.2l-9.9 7.2 3.8 11.6-9.9-7.2-9.8 7.2 3.7-11.6-9.8-7.2h12.2z"/><path d="M50.4 212.7c-.2-.2-.5-.4-.9-.7-.4-.3-1-.6-1.6-.8-.6-.3-1.3-.5-2.1-.7-1.8-.5-3.6-.4-5.3.5-1.1 1.1-1.3 2.2-.6 3.4.3.3.6.7 1.1.9.5.3 1.1.5 1.8.7.7.2 1.6.4 2.5.7 1.2.3 2.4.7 3.4 1.1 1 .4 1.9.9 2.6 1.4.7.6 1.3 1.3 1.6 2.1 1.3 2.8.3 7.1-2.3 8.8-.9.6-1.9 1-3 1.3-4.6 1.1-10.5-.2-14.3-2.9l2.2-4.3c.2.2.6.5 1.2.8.6.3 1.2.7 2 1 .8.3 1.6.6 2.6.9 1.5.4 8.9-.8 6.5-3.7-1-.9-2.1-1.5-3.4-1.8-.8-.2-1.7-.5-2.7-.8-1.2-.3-2.3-.7-3.2-1.1-.9-.4-1.7-.9-2.3-1.4-.6-.5-1.1-1.2-1.4-1.9-.7-2-.6-4 .3-6 .5-1 1.1-1.8 2-2.5.9-.7 1.8-1.2 3-1.5 2.9-.8 5.7-.7 8.6.3 1.5.6 2.8 1.2 4 2l-2.3 4.2zm25.7-2.4H68v21.2h-5v-21.2h-8.2V206h21.3v4.3zm3.2 21.2V206h11.3c1.2 0 2.3.2 3.3.7 1 .5 1.9 1.1 2.6 1.9.7.8 1.3 1.7 1.7 2.7 1 2.6.8 5.1-.6 7.6-.8 1.4-2 2.3-3.4 2.9l5.8 9.6h-5.6l-5.2-8.6h-4.9v8.6h-5zm5-12.9h6.2c1.4 0 2.6-1.3 3-2.5.3-1.1.3-2.2 0-3.3-.2-.5-.5-.9-.8-1.3-.3-.4-.7-.7-1.1-.9-.4-.2-.8-.3-1.3-.3h-6v8.3zm36.7 8.6v4.4h-17.7V206h17.4v4.4h-12.5v6.2H119v4h-10.8v6.7H121zm21.6 0v4.4h-17.7V206h17.4v4.4h-12.5v6.2h10.8v4h-10.8v6.7h12.8zm23-16.9h-8.2v21.2h-4.9v-21.2h-8.2V206h21.3v4.3zM64.7 274.7v-16.9l-6.6 12.6h-2.7l-6.6-12.6v16.9h-5v-25.6h5.3l7.6 14.5 7.6-14.5h5.3v25.6h-4.9zm21.1-4.2c1.2 0 2.2-.2 3-.7.8-.5 1.5-1.1 1.9-1.9.5-.8.8-1.7 1-2.6.2-1 .3-2 .3-3.1v-13h5v13c.1 3.3-.7 6.3-2.6 9-.9 1.2-2.1 2.1-3.5 2.7-3.4 1.4-6.9 1.3-10.3-.1-1.4-.7-2.6-1.6-3.5-2.8-.9-1.2-1.5-2.5-1.9-4-.4-1.5-.6-3.1-.6-4.8v-13h5v13c0 1.1.1 2.1.3 3.1.2 1 .6 1.9 1 2.6 1.2 1.8 2.8 2.6 4.9 2.6zm31.4-14.6c-.8-.6-1.6-1.2-2.5-1.5-.6-.3-1.3-.5-2.1-.7-1.8-.5-3.6-.4-5.3.5-1.1 1.1-1.3 2.2-.6 3.4.3.3.6.7 1.1.9.5.3 1.1.5 1.8.7.7.2 1.6.4 2.5.7 1.2.3 2.4.7 3.4 1.1 1 .4 1.9.9 2.6 1.4.7.6 1.3 1.3 1.6 2.1.8 2.2.8 4.3-.2 6.5-.5 1-1.2 1.8-2.1 2.4-5 3.4-12.8 1.6-17.3-1.6l2.2-4.3c.2.2.6.5 1.2.8.6.3 1.2.7 2 1 .8.3 1.6.6 2.6.9 2.7 1 5 .2 7-2.3 0-1.9-2.5-2.8-3.9-3.2-.8-.2-1.7-.5-2.7-.8-1.2-.3-2.3-.7-3.2-1.1-.9-.4-1.7-.9-2.3-1.4-.6-.5-1-1.2-1.3-1.9-.7-2-.6-4 .3-6 .5-1 1.1-1.8 2-2.5 3.1-2.4 8.1-2.5 11.6-1.2 1.5.6 2.8 1.2 4 2l-2.4 4.1zm6.9 18.8v-25.6h5v25.6h-5zm8.7-12.9c0-1.6.3-3.1.8-4.6 1.2-3.2 3.4-5.5 6.4-7 3.8-1.6 7.7-1.5 11.4.4 1.7 1 3 2.4 3.8 4l-3.8 2.6c-.3-.7-.7-1.3-1.2-1.8-.9-.9-2-1.5-3.3-1.8-4-.9-7.5 1.4-8.7 5.3-.6 2.1-.6 4.2.1 6.3.7 2.1 2 3.6 3.9 4.7 1.6.7 3.2.9 4.8.5.6-.1 1.2-.4 1.8-.7.6-.3 1.1-.7 1.6-1.2s.9-1.1 1.2-1.8l4.1 2.3c-.4 1-1 1.8-1.7 2.5-.8.7-1.6 1.3-2.6 1.9-3.3 1.8-7.8 2.1-11.2.4-1.5-.8-2.8-1.8-3.9-3s-1.9-2.6-2.6-4.2c-.6-1.6-.9-3.2-.9-4.8z"/></svg>